<svg width="369" height="69" viewBox="0 0 369 69" fill="none" xmlns="http://www.w3.org/2000/svg">
<path d="M72.088 27.948C72.088 32.052 70.9 36.192 68.524 40.368C66.22 44.544 63.016 48.324 58.912 51.708C54.88 55.092 49.768 57.828 43.576 59.916C37.456 62.076 30.904 63.156 23.92 63.156C17.008 63.156 13.552 62.58 13.552 61.428C13.552 60.78 14.092 60.456 15.172 60.456H16.9C17.404 60.528 18.052 60.564 18.844 60.564C25.972 60.564 32.74 59.448 39.148 57.216C45.556 54.984 50.812 52.176 54.916 48.792C59.092 45.336 62.368 41.664 64.744 37.776C67.192 33.816 68.416 30.072 68.416 26.544C68.416 21 66.22 16.608 61.828 13.368C57.436 10.056 51.784 8.4 44.872 8.4H44.116C34.252 8.616 20.392 12 2.536 18.552C1.024 18.552 0.268 17.436 0.268 15.204C0.268 14.484 0.592 13.98 1.24 13.692C1.888 13.332 3.976 12.648 7.504 11.64C20.392 7.752 32.2 5.808 42.928 5.808C51.424 5.808 58.408 7.824 63.88 11.856C69.352 15.888 72.088 21.252 72.088 27.948ZM11.392 68.016L11.176 68.124C10.024 68.124 9.088 67.44 8.368 66.072C7.648 64.776 7.288 62.868 7.288 60.348C7.288 51.42 12.328 38.1 22.408 20.388C22.408 20.1 22.768 19.344 23.488 18.12C24.28 16.824 24.928 15.744 25.432 14.88C26.44 13.08 27.304 12.18 28.024 12.18C28.816 12.18 29.716 12.396 30.724 12.828C31.732 13.188 32.236 13.584 32.236 14.016C30.364 17.256 28.42 20.424 26.404 23.52C15.388 42.6 9.88 55.632 9.88 62.616C9.88 63.408 10.132 64.452 10.636 65.748C11.14 67.044 11.392 67.8 11.392 68.016ZM94.3723 12.18C94.5163 12.18 94.5883 12.36 94.5883 12.72L94.0483 15.852C92.9683 20.316 91.3123 22.548 89.0803 22.548C87.4243 22.548 86.1283 22.116 85.1923 21.252C87.9283 19.38 90.9883 16.356 94.3723 12.18ZM88.7563 29.892C86.5243 33.708 84.4003 38.568 82.3843 44.472C80.3683 50.304 79.3603 54.336 79.3603 56.568C79.3603 58.8 79.8283 59.916 80.7643 59.916C81.4123 59.916 82.2403 59.52 83.2483 58.728C84.2563 57.936 84.8683 57.432 85.0843 57.216C85.3003 57 85.5523 56.784 85.8403 56.568C86.1283 56.568 86.2723 56.712 86.2723 57C86.2723 57.864 85.2283 58.872 83.1403 60.024C81.1243 61.248 79.6483 61.86 78.7123 61.86C75.9763 61.86 74.6083 59.88 74.6083 55.92C74.6083 50.016 76.7683 42.132 81.0883 32.268C81.0883 31.98 81.2683 31.44 81.6283 30.648C82.0603 29.856 82.3843 29.352 82.6003 29.136C83.1043 28.632 83.7883 28.38 84.6523 28.38C87.1723 28.38 88.5403 28.884 88.7563 29.892ZM129.89 65.856L130.106 67.152C130.106 67.44 129.962 67.584 129.674 67.584C127.658 67.584 126.65 65.964 126.65 62.724C126.65 56.46 129.134 48.432 134.102 38.64C139.142 28.776 145.442 19.416 153.002 10.56V10.452C135.506 11.892 122.006 16.068 112.502 22.98C112.358 23.124 112.142 23.196 111.854 23.196C110.702 23.196 110.126 22.296 110.126 20.496C110.126 18.696 111.602 17.076 114.554 15.636C127.01 9.732 140.402 6.78 154.73 6.78C163.874 6.78 171.038 8.112 176.222 10.776C181.406 13.44 183.998 17.184 183.998 22.008C183.998 26.832 180.506 31.224 173.522 35.184C166.61 39.144 159.554 41.124 152.354 41.124C148.394 41.124 144.434 40.404 140.474 38.964C138.17 42.204 135.83 46.848 133.454 52.896C131.078 58.872 129.89 63.192 129.89 65.856ZM181.73 19.308C181.73 13.404 172.766 10.452 154.838 10.452C156.71 11.604 157.646 12.252 157.646 12.396C146.63 27.876 141.122 36.228 141.122 37.452C142.562 37.884 144.974 38.1 148.358 38.1C151.814 38.1 156.242 37.2 161.642 35.4C167.114 33.528 171.83 31.116 175.79 28.164C179.75 25.14 181.73 22.188 181.73 19.308ZM185.942 59.484L187.67 58.944C188.03 58.944 188.21 59.124 188.21 59.484C188.21 60.636 186.95 61.212 184.43 61.212C180.974 61.212 179.246 58.332 179.246 52.572C179.246 48.756 180.398 42.708 182.702 34.428C185.006 26.076 187.922 18.264 191.45 10.992C194.978 3.72 198.146 0.0839989 200.954 0.0839989C202.538 0.0839989 204.122 0.623998 205.706 1.704C207.29 2.712 208.082 3.828 208.082 5.052C208.082 10.236 200.45 21.756 185.186 39.612C183.962 44.94 183.35 49.584 183.35 53.544C183.35 57.504 184.214 59.484 185.942 59.484ZM205.49 4.728C205.49 3.864 205.238 3.432 204.734 3.432C202.574 3.432 199.442 7.284 195.338 14.988C191.234 22.62 188.102 29.892 185.942 36.804C198.974 19.74 205.49 9.048 205.49 4.728ZM218.794 60.132L219.874 59.916L220.09 60.024C220.09 60.672 219.19 60.996 217.39 60.996C215.662 60.996 214.222 60.204 213.07 58.62C211.99 57.036 211.45 54.912 211.45 52.248C211.45 49.512 211.954 46.416 212.962 42.96C212.962 43.176 211.99 44.652 210.046 47.388C204.142 56.532 199.498 61.104 196.114 61.104C194.674 61.104 193.342 60.42 192.118 59.052C190.966 57.756 190.39 56.064 190.39 53.976C190.39 51.816 191.65 48.576 194.17 44.256C196.762 39.864 199.858 35.976 203.458 32.592C207.058 29.208 210.154 27.516 212.746 27.516H213.826C216.49 27.516 218.758 28.056 220.63 29.136C222.502 30.144 223.438 31.512 223.438 33.24C223.438 34.032 223.114 34.428 222.466 34.428C222.25 34.428 222.142 34.32 222.142 34.104C220.918 31.44 219.154 30.108 216.85 30.108C212.818 30.108 208.138 33.492 202.81 40.26C197.554 46.956 194.926 52.068 194.926 55.596C194.926 56.964 195.286 57.648 196.006 57.648C199.246 57.648 206.05 50.34 216.418 35.724C216.562 35.58 216.778 35.508 217.066 35.508C217.426 35.508 218.182 35.868 219.334 36.588C220.486 37.236 221.062 37.812 221.062 38.316C221.062 38.316 220.558 39.252 219.55 41.124C217.174 46.164 215.986 50.592 215.986 54.408C215.986 58.224 216.922 60.132 218.794 60.132ZM253.595 29.46C253.595 29.172 253.415 29.352 253.055 30C251.039 33.672 249.239 38.1 247.655 43.284C246.071 48.468 245.279 51.852 245.279 53.436C245.279 57.828 246.071 60.024 247.655 60.024C248.159 60.024 248.807 59.664 249.599 58.944C250.463 58.296 250.823 57.972 250.679 57.972C250.895 57.972 251.003 58.26 251.003 58.836C251.003 60.708 249.923 61.644 247.763 61.644C245.603 61.644 243.947 60.672 242.795 58.728C241.643 56.856 241.067 54.156 241.067 50.628C241.067 47.1 242.003 42.456 243.875 36.696C245.747 30.864 247.547 27.948 249.275 27.948H249.815C252.335 27.948 253.595 28.452 253.595 29.46ZM245.171 30.54C245.243 30.612 245.279 30.756 245.279 30.972C245.279 31.116 244.991 31.548 244.415 32.268C236.639 41.7 231.239 49.764 228.215 56.46L227.243 59.268C226.811 60.06 226.271 60.456 225.623 60.456C224.975 60.456 224.255 60.276 223.463 59.916C222.671 59.556 222.275 59.124 222.275 58.62C222.275 57.396 223.463 53.076 225.839 45.66C228.215 38.172 229.403 32.556 229.403 28.812C229.403 27.804 229.151 27.192 228.647 26.976C228.143 26.76 227.639 26.688 227.135 26.76C226.631 26.76 226.379 26.58 226.379 26.22C226.379 25.572 226.919 25.248 227.999 25.248C232.823 25.248 235.235 27.228 235.235 31.188C235.235 32.7 233.507 38.568 230.051 48.792C233.219 43.824 236.279 39.54 239.231 35.94C242.183 32.34 244.163 30.54 245.171 30.54ZM274.513 12.18C274.657 12.18 274.729 12.36 274.729 12.72L274.189 15.852C273.109 20.316 271.453 22.548 269.221 22.548C267.565 22.548 266.269 22.116 265.333 21.252C268.069 19.38 271.129 16.356 274.513 12.18ZM268.897 29.892C266.665 33.708 264.541 38.568 262.525 44.472C260.509 50.304 259.501 54.336 259.501 56.568C259.501 58.8 259.969 59.916 260.905 59.916C261.553 59.916 262.381 59.52 263.389 58.728C264.397 57.936 265.009 57.432 265.225 57.216C265.441 57 265.693 56.784 265.981 56.568C266.269 56.568 266.413 56.712 266.413 57C266.413 57.864 265.369 58.872 263.281 60.024C261.265 61.248 259.789 61.86 258.853 61.86C256.117 61.86 254.749 59.88 254.749 55.92C254.749 50.016 256.909 42.132 261.229 32.268C261.229 31.98 261.409 31.44 261.769 30.648C262.201 29.856 262.525 29.352 262.741 29.136C263.245 28.632 263.929 28.38 264.793 28.38C267.313 28.38 268.681 28.884 268.897 29.892ZM287.761 25.896C288.265 25.896 289.273 26.652 290.785 28.164C292.297 29.676 293.053 30.648 293.053 31.08C293.053 31.44 292.873 31.62 292.513 31.62C290.929 31.26 289.921 31.08 289.489 31.08C286.249 31.08 282.901 32.268 279.445 34.644C276.061 37.02 274.369 39.432 274.369 41.88C274.369 42.384 276.061 44.58 279.445 48.468C282.829 52.284 284.521 54.912 284.521 56.352C284.521 57.72 283.513 59.124 281.497 60.564C279.481 62.004 277.429 62.724 275.341 62.724C273.325 62.724 271.597 62.4 270.157 61.752C268.717 61.176 267.997 60.564 267.997 59.916C276.277 58.188 280.417 56.1 280.417 53.652C280.417 53.148 279.445 52.032 277.501 50.304C273.757 46.992 271.885 43.284 271.885 39.18C271.885 36.3 273.721 33.384 277.393 30.432C281.137 27.408 284.593 25.896 287.761 25.896ZM303.111 16.5L300.951 17.04C300.735 17.04 300.627 16.932 300.627 16.716C300.627 16.14 301.059 15.708 301.923 15.42C302.787 15.06 303.435 14.88 303.867 14.88C307.035 14.88 308.619 16.68 308.619 20.28C308.619 22.44 307.971 25.176 306.675 28.488C306.963 28.776 308.259 28.92 310.563 28.92C312.867 28.92 314.667 28.668 315.963 28.164C317.259 27.588 318.015 27.3 318.231 27.3C318.519 27.3 318.663 27.408 318.663 27.624C318.663 27.84 318.519 28.092 318.231 28.38C314.847 31.26 310.707 33.024 305.811 33.672C305.379 33.672 304.875 33.78 304.299 33.996C297.747 47.1 294.471 55.38 294.471 58.836C294.471 59.988 294.903 60.564 295.767 60.564L298.791 59.916L298.899 60.024C298.899 61.536 297.711 62.292 295.335 62.292C292.167 62.292 290.583 60.6 290.583 57.216C290.583 54.336 291.591 50.34 293.607 45.228C294.759 42.636 296.451 38.676 298.683 33.348C296.235 32.34 295.011 30.936 295.011 29.136C295.011 28.56 295.155 28.164 295.443 27.948C296.595 28.452 298.251 28.812 300.411 29.028C302.787 23.772 303.975 20.388 303.975 18.876C303.975 17.292 303.687 16.5 303.111 16.5ZM341.651 27.624C341.651 27.336 341.255 27.732 340.463 28.812C337.727 32.628 336.251 35.436 336.035 37.236C336.035 39.18 336.719 40.368 338.087 40.8C338.591 40.944 338.843 41.052 338.843 41.124C338.843 41.7 338.123 41.988 336.683 41.988C335.315 41.988 334.127 41.448 333.119 40.368C332.111 39.216 331.607 37.956 331.607 36.588C331.607 35.148 331.787 33.924 332.147 32.916C328.619 35.724 325.667 38.604 323.291 41.556C320.987 44.508 319.403 47.064 318.539 49.224C317.675 51.384 317.027 53.364 316.595 55.164C316.163 56.892 315.803 58.188 315.515 59.052C315.227 59.988 314.759 60.456 314.111 60.456C313.463 60.456 312.743 60.276 311.951 59.916C311.159 59.556 310.763 59.124 310.763 58.62C310.763 57.396 311.951 53.076 314.327 45.66C316.703 38.172 317.891 32.556 317.891 28.812C317.891 27.588 317.387 26.94 316.379 26.868C315.371 26.724 314.867 26.508 314.867 26.22C314.867 25.572 315.407 25.248 316.487 25.248C321.311 25.248 323.723 27.228 323.723 31.188C323.723 32.34 322.535 36.588 320.159 43.932C324.047 37.596 328.367 33.24 333.119 30.864C334.271 28.272 335.963 26.976 338.195 26.976C340.499 26.976 341.651 27.192 341.651 27.624ZM364.025 60.132L365.105 59.916L365.321 60.024C365.321 60.672 364.421 60.996 362.621 60.996C360.893 60.996 359.453 60.204 358.301 58.62C357.221 57.036 356.681 54.912 356.681 52.248C356.681 49.512 357.185 46.416 358.193 42.96C358.193 43.176 357.221 44.652 355.277 47.388C349.373 56.532 344.729 61.104 341.345 61.104C339.905 61.104 338.573 60.42 337.349 59.052C336.197 57.756 335.621 56.064 335.621 53.976C335.621 51.816 336.881 48.576 339.401 44.256C341.993 39.864 345.089 35.976 348.689 32.592C352.289 29.208 355.385 27.516 357.977 27.516H359.057C361.721 27.516 363.989 28.056 365.861 29.136C367.733 30.144 368.669 31.512 368.669 33.24C368.669 34.032 368.345 34.428 367.697 34.428C367.481 34.428 367.373 34.32 367.373 34.104C366.149 31.44 364.385 30.108 362.081 30.108C358.049 30.108 353.369 33.492 348.041 40.26C342.785 46.956 340.157 52.068 340.157 55.596C340.157 56.964 340.517 57.648 341.237 57.648C344.477 57.648 351.281 50.34 361.649 35.724C361.793 35.58 362.009 35.508 362.297 35.508C362.657 35.508 363.413 35.868 364.565 36.588C365.717 37.236 366.293 37.812 366.293 38.316C366.293 38.316 365.789 39.252 364.781 41.124C362.405 46.164 361.217 50.592 361.217 54.408C361.217 58.224 362.153 60.132 364.025 60.132Z" fill="white"/>
</svg>
